Coordinates
version=1
nRows=73
nColumns=8
inDegrees=no

Units are S.I. units (second, meters, Newtons, ...)
Angles are in radian.

endheader
time	Shoulder_Right1	Shoulder_Right2	Shoulder_Right3	Elbow_Right1	Wrist_Right1	Wrist_Right2	Wrist_Right3
      0.00000000	     -0.36047500	      0.22928300	      0.21556600	      1.37520000	     -0.52784900	     -0.26353200	     -0.72940100
      0.00001000	     -0.36106200	      0.22928700	      0.21582500	      1.37424000	     -0.52750100	     -0.26345500	     -0.72804600
      0.00002000	     -0.36138500	      0.22958100	      0.21614400	      1.37356000	     -0.52766400	     -0.26321100	     -0.72956500
      0.00003000	     -0.36203200	      0.22945800	      0.21623200	      1.37253000	     -0.52778800	     -0.26286800	     -0.73022800
      0.00004000	     -0.36257100	      0.22954700	      0.21638900	      1.37173000	     -0.52765400	     -0.26247800	     -0.73137600
      0.00005000	     -0.36308500	      0.22951100	      0.21646500	      1.37078000	     -0.52761800	     -0.26211900	     -0.73167900
      0.00006000	     -0.36371000	      0.22917300	      0.21610700	      1.36946000	     -0.52736100	     -0.26169400	     -0.73081000
      0.00007000	     -0.36424000	      0.22914500	      0.21614000	      1.36853000	     -0.52699100	     -0.26132600	     -0.73115000
      0.00008000	     -0.36485600	      0.22894400	      0.21612700	      1.36732000	     -0.52707600	     -0.26108100	     -0.73086000
      0.00009000	     -0.36541000	      0.22928700	      0.21669500	      1.36672000	     -0.52720400	     -0.26086500	     -0.73127200
      0.00010000	     -0.36593500	      0.22905200	      0.21644700	      1.36589000	     -0.52725900	     -0.26057200	     -0.73156400
      0.00011000	     -0.36636000	      0.22932000	      0.21678400	      1.36471000	     -0.52710100	     -0.26004000	     -0.73253800
      0.00012000	     -0.36686500	      0.22952000	      0.21707200	      1.36426000	     -0.52718300	     -0.25988900	     -0.73351600
      0.00013000	     -0.36752500	      0.22927800	      0.21697000	      1.36311000	     -0.52676500	     -0.25948700	     -0.73217400
      0.00014000	     -0.36797300	      0.22953500	      0.21736100	      1.36227000	     -0.52725000	     -0.25915100	     -0.73279700
      0.00015000	     -0.36855700	      0.22944500	      0.21725600	      1.36125000	     -0.52674100	     -0.25863100	     -0.73329000
      0.00016000	     -0.36911800	      0.22939900	      0.21731100	      1.36024000	     -0.52711800	     -0.25806200	     -0.73512900
      0.00017000	     -0.36973200	      0.22961300	      0.21792100	      1.35947000	     -0.52664300	     -0.25831600	     -0.73436000
      0.00018000	     -0.37009800	      0.22976400	      0.21812000	      1.35872000	     -0.52673300	     -0.25801200	     -0.73550000
      0.00019000	     -0.37080900	      0.22963000	      0.21802200	      1.35758000	     -0.52689500	     -0.25728600	     -0.73723000
      0.00020000	     -0.37140700	      0.22974400	      0.21821200	      1.35689000	     -0.52696300	     -0.25711200	     -0.73895000
      0.00021000	     -0.37191300	      0.22996100	      0.21870600	      1.35587000	     -0.52675800	     -0.25683900	     -0.73842700
      0.00022000	     -0.37246100	      0.22992700	      0.21882800	      1.35509000	     -0.52681700	     -0.25637900	     -0.73718600
      0.00023000	     -0.37304900	      0.23008200	      0.21915000	      1.35415000	     -0.52701900	     -0.25624600	     -0.73913000
      0.00024000	     -0.37361200	      0.23000600	      0.21914700	      1.35300000	     -0.52639800	     -0.25560700	     -0.73867700
      0.00025000	     -0.37423100	      0.23025100	      0.21973600	      1.35223000	     -0.52633600	     -0.25586900	     -0.73963900
      0.00026000	     -0.37481400	      0.23030900	      0.21982100	      1.35134000	     -0.52640500	     -0.25536000	     -0.74132600
      0.00027000	     -0.37559200	      0.23025000	      0.22012900	      1.34996000	     -0.52607200	     -0.25497700	     -0.74131000
      0.00028000	     -0.37612500	      0.23042300	      0.22042800	      1.34937000	     -0.52624400	     -0.25429800	     -0.74149600
      0.00029000	     -0.37676900	      0.23034000	      0.22056900	      1.34813000	     -0.52597300	     -0.25396100	     -0.74086500
      0.00030000	     -0.37739400	      0.23061000	      0.22105000	      1.34710000	     -0.52605600	     -0.25355500	     -0.74159200
      0.00031000	     -0.37801500	      0.23056600	      0.22108900	      1.34605000	     -0.52576600	     -0.25300900	     -0.74176900
      0.00032000	     -0.37865300	      0.23053800	      0.22125100	      1.34487000	     -0.52558200	     -0.25255400	     -0.74172100
      0.00033000	     -0.37944800	      0.23068300	      0.22173000	      1.34362000	     -0.52531800	     -0.25216700	     -0.74277800
      0.00034000	     -0.37993600	      0.23084500	      0.22192700	      1.34278000	     -0.52542700	     -0.25155000	     -0.74301000
      0.00035000	     -0.38068500	      0.23077100	      0.22204800	      1.34137000	     -0.52517300	     -0.25117900	     -0.74397400
      0.00036000	     -0.38127100	      0.23105700	      0.22254100	      1.34047000	     -0.52547800	     -0.25067200	     -0.74491700
      0.00037000	     -0.38193200	      0.23106700	      0.22275000	      1.33917000	     -0.52529700	     -0.25024200	     -0.74545500
      0.00038000	     -0.38261600	      0.23117700	      0.22301800	      1.33807000	     -0.52525000	     -0.24980000	     -0.74566500
      0.00039000	     -0.38330400	      0.23119200	      0.22307500	      1.33680000	     -0.52503400	     -0.24892500	     -0.74641300
      0.00040000	     -0.38394800	      0.23135600	      0.22350500	      1.33573000	     -0.52538800	     -0.24859200	     -0.74730400
      0.00041000	     -0.38464300	      0.23143700	      0.22374600	      1.33459000	     -0.52528500	     -0.24801100	     -0.74805600
      0.00042000	     -0.38520500	      0.23170400	      0.22415900	      1.33339000	     -0.52536700	     -0.24735900	     -0.74933100
      0.00043000	     -0.38605700	      0.23161800	      0.22430700	      1.33214000	     -0.52571500	     -0.24697900	     -0.75035400
      0.00044000	     -0.38674600	      0.23161500	      0.22433000	      1.33102000	     -0.52588500	     -0.24611600	     -0.75093300
      0.00045000	     -0.38738300	      0.23176500	      0.22453600	      1.32995000	     -0.52642200	     -0.24523800	     -0.75184700
      0.00046000	     -0.38807700	      0.23184100	      0.22479100	      1.32877000	     -0.52663500	     -0.24471100	     -0.75320700
      0.00047000	     -0.38878900	      0.23191600	      0.22500100	      1.32768000	     -0.52729200	     -0.24397100	     -0.75528300
      0.00048000	     -0.38938100	      0.23210400	      0.22524500	      1.32656000	     -0.52778300	     -0.24316800	     -0.75631100
      0.00049000	     -0.39027100	      0.23189400	      0.22519500	      1.32497000	     -0.52736200	     -0.24250200	     -0.75622900
      0.00050000	     -0.39079600	      0.23208700	      0.22539000	      1.32416000	     -0.52817000	     -0.24186200	     -0.75823700
      0.00051000	     -0.39147700	      0.23214900	      0.22566800	      1.32304000	     -0.52855000	     -0.24129400	     -0.75643200
      0.00052000	     -0.39219300	      0.23224700	      0.22579700	      1.32145000	     -0.52854000	     -0.24062200	     -0.75919200
      0.00053000	     -0.39293200	      0.23225000	      0.22607300	      1.32021000	     -0.52878900	     -0.24009100	     -0.75734100
      0.00054000	     -0.39354500	      0.23248600	      0.22666900	      1.31882000	     -0.52928200	     -0.24027300	     -0.76253800
      0.00055000	     -0.39422100	      0.23249400	      0.22637400	      1.31786000	     -0.52971900	     -0.23849700	     -0.76125200
      0.00056000	     -0.39486600	      0.23277200	      0.22691800	      1.31672000	     -0.53030300	     -0.23807400	     -0.76283600
      0.00057000	     -0.39572700	      0.23244700	      0.22672600	      1.31498000	     -0.52996500	     -0.23743600	     -0.76309500
      0.00058000	     -0.39620500	      0.23279000	      0.22715700	      1.31398000	     -0.53067800	     -0.23676400	     -0.76422400
      0.00059000	     -0.39694800	      0.23305100	      0.22762300	      1.31278000	     -0.53131700	     -0.23609500	     -0.76391000
      0.00060000	     -0.39771300	      0.23272700	      0.22720700	      1.31119000	     -0.53113400	     -0.23518200	     -0.76476000
      0.00061000	     -0.39840200	      0.23285500	      0.22760700	      1.30995000	     -0.53156400	     -0.23471900	     -0.76457600
      0.00062000	     -0.39902600	      0.23286600	      0.22774000	      1.30876000	     -0.53185500	     -0.23419500	     -0.76490000
      0.00063000	     -0.39974700	      0.23274200	      0.22770100	      1.30712000	     -0.53183100	     -0.23342500	     -0.76455400
      0.00064000	     -0.40046200	      0.23238900	      0.22721100	      1.30552000	     -0.53196600	     -0.23245400	     -0.76551000
      0.00065000	     -0.40123000	      0.23245000	      0.22755900	      1.30419000	     -0.53203300	     -0.23190500	     -0.76613100
      0.00066000	     -0.40166100	      0.23263700	      0.22784100	      1.30310000	     -0.53219500	     -0.23166600	     -0.76602700
      0.00067000	     -0.40241700	      0.23257900	      0.22790400	      1.30183000	     -0.53310500	     -0.23082300	     -0.76638300
      0.00068000	     -0.40298500	      0.23276600	      0.22814800	      1.30106000	     -0.53382900	     -0.23011100	     -0.76940500
      0.00069000	     -0.40362600	      0.23265200	      0.22808000	      1.29981000	     -0.53410400	     -0.22952100	     -0.76839200
      0.00070000	     -0.40428700	      0.23265200	      0.22862800	      1.29826000	     -0.53449200	     -0.22998600	     -0.77194100
      0.00071000	     -0.40490000	      0.23255600	      0.22822600	      1.29758000	     -0.53495800	     -0.22843800	     -0.76906600
      0.00072000	     -0.40537100	      0.23291500	      0.22893400	      1.29662000	     -0.53532900	     -0.22825900	     -0.77074500
